<?xml version="1.0" encoding="UTF-8" standalone="no"?>
<!DOCTYPE svg PUBLIC "-//W3C//DTD SVG 1.1//EN" "http://www.w3.org/Graphics/SVG/1.1/DTD/svg11.dtd">
<svg id="root" width="100%" height="100%" viewBox="0 0 1000 1000" version="1.1" xmlns="http://www.w3.org/2000/svg" xmlns:xlink="http://www.w3.org/1999/xlink" xml:space="preserve" xmlns:serif="http://www.serif.com/" style="fill-rule:evenodd;clip-rule:evenodd;stroke-linejoin:round;stroke-miterlimit:2;">
    <g transform="matrix(3.07692,0,0,3.07692,-343.077,-100)">
        <clipPath id="_clip1">
            <path d="M436.5,195C436.5,284.746 363.746,357.5 274,357.5C184.253,357.5 111.5,284.746 111.5,195C111.5,105.253 184.253,32.5 274,32.5C363.746,32.5 436.5,105.253 436.5,195Z"/>
        </clipPath>
        <g clip-path="url(#_clip1)">
            <path d="M436.5,195C436.5,284.746 363.746,357.5 274,357.5C184.253,357.5 111.5,284.746 111.5,195C111.5,105.253 184.253,32.5 274,32.5C363.746,32.5 436.5,105.253 436.5,195Z" style="fill:rgb(74,186,131);"/>
        </g>
    </g>
    <g transform="matrix(1.07273,0,0,1.07273,-1.3035,-36.3636)">
        <rect x="294.003" y="258.149" width="52.151" height="707.953" style="fill:rgb(26,67,46);"/>
    </g>
    <g transform="matrix(1.07273,0,0,0.83566,-129.88,195.885)">
        <rect x="294.003" y="258.149" width="52.151" height="707.953" style="fill:rgb(26,67,46);"/>
    </g>
    <g transform="matrix(1.07273,0,0,1.13002,126.581,-74.9295)">
        <rect x="294.003" y="258.149" width="52.151" height="707.953" style="fill:rgb(26,67,46);"/>
    </g>
    <g transform="matrix(1.07273,0,0,1.07273,257.992,-19.5804)">
        <rect x="294.003" y="258.149" width="52.151" height="707.953" style="fill:rgb(26,67,46);"/>
    </g>
    <g transform="matrix(1.07273,0,0,1.23275,389.148,-190.959)">
        <rect x="294.003" y="258.149" width="52.151" height="707.953" style="fill:rgb(26,67,46);"/>
    </g>
    <g id="man1" transform="matrix(5.82275,0,0,5.82275,532.587,772.028)">
        <g transform="matrix(1,0,0,1,-50,-50)">
            <path d="M86.34,90L13.66,90L18.823,61.389C19.865,55.613 24.454,51.089 30.244,50.129L50,46.854L69.757,50.129C75.547,51.089 80.136,55.613 81.178,61.389L86.34,90Z" style="fill:rgb(224,224,224);fill-rule:nonzero;"/>
            <g>
                <path d="M55.778,59.438L50,64.318L44.222,59.438L44.222,49.936L55.778,49.936L55.778,59.438Z" style="fill:rgb(195,55,54);fill-rule:nonzero;"/>
                <path d="M56.187,90L43.754,90L47.518,61.493L52.423,61.493L56.187,90Z" style="fill:rgb(195,55,54);fill-rule:nonzero;"/>
            </g>
            <path d="M42.809,48.395L37.809,44.373L32.793,49.706L43.836,62.52L48.459,50.706L42.809,48.395Z" style="fill:white;fill-rule:nonzero;"/>
            <path d="M57.191,48.395L62.191,44.373L67.207,49.706L56.164,62.52L51.541,50.706L57.191,48.395Z" style="fill:white;fill-rule:nonzero;"/>
            <g>
                <path d="M67.207,27.978C67.207,39.609 59.503,52.119 50,52.119C40.497,52.119 32.793,39.609 32.793,27.978C32.793,16.347 40.497,10 50,10C59.503,10 67.207,16.347 67.207,27.978Z" style="fill:rgb(244,230,200);fill-rule:nonzero;"/>
                <path d="M50,10C40.497,10 32.793,16.347 32.793,27.978C32.793,28.607 32.82,29.238 32.864,29.87C40.532,29.528 47.379,26.662 52.194,22.271C54.571,26.867 58.651,29.904 63.291,29.904C64.644,29.904 65.949,29.642 67.18,29.163C67.197,28.767 67.208,28.372 67.208,27.978C67.207,16.347 59.503,10 50,10Z" style="fill:rgb(50,50,50);fill-rule:nonzero;"/>
            </g>
        </g>
    </g>
    <g id="woman1" transform="matrix(4.90807,0,0,4.90807,665.11,809.04)">
        <g transform="matrix(1,0,0,1,-50,-50)">
            <path d="M50,11.75C37.252,11.75 26.918,20.264 26.918,35.866L26.918,68.25L73.083,68.25L73.083,35.866C73.082,20.264 62.748,11.75 50,11.75Z" style="fill:rgb(50,50,50);fill-rule:nonzero;"/>
            <path d="M90,89.82L87.421,75.529C86.17,68.596 80.663,63.167 73.713,62.014L50,58.083L26.287,62.014C19.337,63.166 13.829,68.596 12.579,75.529L10,89.82L90,89.82Z" style="fill:rgb(224,224,224);fill-rule:nonzero;"/>
            <g>
                <path d="M56.936,73.187L50,79.044L43.064,73.187L43.064,61.782L56.936,61.782L56.936,73.187Z" style="fill:rgb(195,55,54);fill-rule:nonzero;"/>
                <path d="M55.038,90.079L53.167,75.913L47.28,75.913L45.41,90.079L55.038,90.079Z" style="fill:rgb(195,55,54);fill-rule:nonzero;"/>
            </g>
            <path d="M41.369,59.933L35.367,55.105L29.347,61.507L42.602,76.886L48.15,62.707L41.369,59.933Z" style="fill:white;fill-rule:nonzero;"/>
            <path d="M58.631,59.933L64.633,55.105L70.653,61.507L57.398,76.886L51.85,62.707L58.631,59.933Z" style="fill:white;fill-rule:nonzero;"/>
            <path d="M70.653,35.426C70.653,49.386 61.406,64.402 50,64.402C38.594,64.402 29.347,49.386 29.347,35.426C29.347,21.466 38.594,13.849 50,13.849C61.406,13.849 70.653,21.467 70.653,35.426Z" style="fill:rgb(244,230,200);fill-rule:nonzero;"/>
            <path d="M50,12.738C38.063,12.738 28.387,20.71 28.387,35.319C28.387,36.109 28.421,36.902 28.476,37.695C38.108,37.266 46.707,33.666 52.755,28.151C55.741,33.924 60.865,37.739 66.693,37.739C68.393,37.739 70.032,37.41 71.577,36.808C71.599,36.311 71.612,35.815 71.612,35.32C71.613,20.71 61.937,12.738 50,12.738Z" style="fill:rgb(50,50,50);fill-rule:nonzero;"/>
        </g>
    </g>
    <path d="M0,1003.22L0,0L1000,0L1000,1016.78L0,1003.22ZM0,500C0,775.958 224.042,1000 500,1000C775.958,1000 1000,775.958 1000,500C1000,224.042 775.958,0 500,0C224.042,0 0,224.042 0,500Z" style="fill:white;"/>
</svg>
