<?xml version="1.0"?>
<svg id="root" xmlns="http://www.w3.org/2000/svg" viewBox="0 0 100 100"><path d="M86.34 90H13.66l5.163-28.611a13.919 13.919 0 0 1 11.421-11.26L50 46.854l19.757 3.275a13.918 13.918 0 0 1 11.421 11.26L86.34 90z" fill="#e0e0e0"/><g><path fill="#c33736" d="M55.778 59.438L50 64.318l-5.778-4.88v-9.502h11.556z"/><path fill="#c33736" d="M56.187 90H43.754l3.764-28.507h4.905z"/></g><path fill="#fff" d="M42.809 48.395l-5-4.022-5.016 5.333L43.836 62.52l4.623-11.814z"/><path fill="#fff" d="M57.191 48.395l5-4.022 5.016 5.333L56.164 62.52l-4.623-11.814z"/><g><path d="M67.207 27.978c0 11.631-7.704 24.141-17.207 24.141s-17.207-12.51-17.207-24.141S40.497 10 50 10s17.207 6.347 17.207 17.978z" fill="#f4e6c8"/><path d="M50 10c-9.503 0-17.207 6.347-17.207 17.978 0 .629.027 1.26.071 1.892 7.668-.342 14.515-3.208 19.33-7.599 2.377 4.596 6.457 7.633 11.097 7.633 1.353 0 2.658-.262 3.889-.741.017-.396.028-.791.028-1.185C67.207 16.347 59.503 10 50 10z" fill="#323232"/></g><metadata xmlns:d="https://loading.io/stock/">
<d:name>people</d:name>
<d:tags>people,salesman,figure,avatar,man,person,member,crew,staff,owner</d:tags>
<d:license>by</d:license>
<d:slug>74hb9f</d:slug>
</metadata></svg>