<?xml version="1.0" encoding="UTF-8" standalone="no"?>
<!DOCTYPE svg PUBLIC "-//W3C//DTD SVG 1.1//EN" "http://www.w3.org/Graphics/SVG/1.1/DTD/svg11.dtd">
<svg id="root" width="100%" height="100%" viewBox="0 0 1355 1355" version="1.1" xmlns="http://www.w3.org/2000/svg" xmlns:xlink="http://www.w3.org/1999/xlink" xml:space="preserve" xmlns:serif="http://www.serif.com/" style="fill-rule:evenodd;clip-rule:evenodd;stroke-linejoin:round;stroke-miterlimit:2;">
    <g transform="matrix(1,0,0,1,-464.583,-135.417)">
        <g transform="matrix(4.16667,0,0,4.16667,0,0)">
            <clipPath id="_clip1">
                <path d="M436.5,195C436.5,284.746 363.746,357.5 274,357.5C184.253,357.5 111.5,284.746 111.5,195C111.5,105.253 184.253,32.5 274,32.5C363.746,32.5 436.5,105.253 436.5,195Z"/>
            </clipPath>
            <g clip-path="url(#_clip1)">
                <path d="M436.5,195C436.5,284.746 363.746,357.5 274,357.5C184.253,357.5 111.5,284.746 111.5,195C111.5,105.253 184.253,32.5 274,32.5C363.746,32.5 436.5,105.253 436.5,195Z" style="fill:rgb(113,183,227);fill-rule:nonzero;"/>
                <clipPath id="_clip2">
                    <path d="M436.5,195C436.5,284.746 363.746,357.5 274,357.5C184.253,357.5 111.5,284.746 111.5,195C111.5,105.253 184.253,32.5 274,32.5C363.746,32.5 436.5,105.253 436.5,195Z" clip-rule="nonzero"/>
                </clipPath>
                <g clip-path="url(#_clip2)">
                    <path d="M405.424,222.593C403.116,218.424 398.785,216.074 394.331,216.095L394.201,216.099C392.203,216.129 390.185,216.631 388.315,217.666L336.195,246.506C336.601,252.948 333.407,259.456 327.386,262.792C323.29,265.056 318.665,265.479 314.489,264.338L280.329,254.649C278.784,254.276 278.045,253.318 278.458,251.854C278.864,250.486 279.924,249.733 281.603,250.215L315.553,259.88C322.247,261.81 329.225,257.948 331.138,251.257C333.058,244.572 329.202,237.605 322.521,235.683L251.919,215.405C251.372,215.278 250.815,215.2 250.255,215.148C249.946,215.125 249.638,215.1 249.328,215.095C249.134,215.092 248.941,215.088 248.747,215.094C248.652,215.096 248.556,215.099 248.461,215.103C246.612,215.198 244.754,215.705 243.018,216.665L204.813,237.804L225,274.113L244.954,263.075C248.007,261.383 251.481,261.224 254.66,262.068L317.351,281.504C321.079,282.453 323.888,282.106 326.924,280.428L400.512,239.706C406.59,236.345 408.788,228.675 405.424,222.593Z" style="fill:rgb(249,217,189);fill-rule:nonzero;"/>
                    <path d="M334.202,247.18C332.937,241.89 328.938,237.407 323.35,235.799L322.521,235.683C329.202,237.604 333.058,244.572 331.138,251.257C329.225,257.948 322.247,261.81 315.553,259.88L281.603,250.215C279.924,249.733 278.864,250.486 278.458,251.854C278.045,253.318 278.784,254.276 280.329,254.649L314.489,264.338C318.665,265.479 323.29,265.056 327.386,262.792C333.407,259.456 336.601,252.948 336.195,246.506L334.202,247.18Z" style="fill:rgb(246,201,161);fill-rule:nonzero;"/>
                    <path d="M248.747,215.094C248.941,215.088 249.134,215.092 249.328,215.095L249.102,215.082C248.983,215.082 248.866,215.091 248.747,215.094Z" style="fill:rgb(251,198,174);fill-rule:nonzero;"/>
                    <path d="M215.808,282.791L215.808,216.111L228.56,216.111L241.305,216.115L241.305,282.791L228.556,282.795L215.808,282.791Z" style="fill:white;fill-rule:nonzero;"/>
                    <clipPath id="_clip3">
                        <path d="M436.5,195C436.5,284.746 363.746,357.5 274,357.5C184.253,357.5 111.5,284.746 111.5,195C111.5,105.253 184.253,32.5 274,32.5C363.746,32.5 436.5,105.253 436.5,195Z"/>
                    </clipPath>
                    <g clip-path="url(#_clip3)">
                        <g>
                            <path d="M220.051,282.799L107,282.795L107,216.098L220.051,216.103L220.051,282.799Z" style="fill:rgb(56,56,56);fill-rule:nonzero;"/>
                        </g>
                    </g>
                    <path d="M241.305,282.791L241.305,265.094L241.306,265.093L241.307,282.791" style="fill:rgb(20,144,177);fill-rule:nonzero;"/>
                    <path d="M241.305,265.094L241.305,249.44L241.306,265.093L241.305,265.094Z" style="fill:rgb(224,195,170);fill-rule:nonzero;"/>
                    <path d="M220.051,282.791L220.051,249.441L241.305,249.44L241.305,282.791L220.051,282.791Z" style="fill:rgb(230,230,230);fill-rule:nonzero;"/>
                    <path d="M137.233,282.792C130.563,272.423 125.042,261.253 120.846,249.447L220.051,249.441L220.051,282.791L137.233,282.792Z" style="fill:rgb(51,51,51);fill-rule:nonzero;"/>
                    <path d="M231.01,266.89C233.312,266.89 235.18,268.706 235.176,270.941C235.176,273.184 233.312,274.991 231.01,274.997C228.705,274.997 226.843,273.184 226.847,270.941C226.843,268.706 228.705,266.889 231.01,266.89Z" style="fill:rgb(251,176,59);fill-rule:nonzero;"/>
                    <path d="M396.758,135.712C392.418,135.712 389.021,137.466 389.021,139.714C389.021,141.957 392.418,143.71 396.758,143.71C401.094,143.71 404.491,141.957 404.491,139.714C404.491,137.466 401.094,135.712 396.758,135.712Z" style="fill:rgb(209,74,56);fill-rule:nonzero;"/>
                    <path d="M390.842,137.247L390.609,137.218L390.424,137.347C389.409,138.041 388.874,138.883 388.874,139.785C388.874,140.859 389.656,141.857 391.074,142.6L391.254,142.696L391.453,142.665C394.29,142.202 395.92,141.23 395.92,140C395.92,138.679 394.021,137.654 390.842,137.247Z" style="fill:rgb(77,77,80);fill-rule:nonzero;"/>
                    <path d="M394.215,140.572L394.219,140.572C394.164,140.572 388.713,140.632 387.196,143.41C386.389,144.884 386.829,146.984 388.503,149.643L387.044,150.562C385.003,147.335 384.547,144.639 385.68,142.573C387.691,138.911 393.943,138.843 394.211,138.843L394.215,140.572Z" style="fill:rgb(77,77,80);fill-rule:nonzero;"/>
                    <path d="M257.952,135.712C262.291,135.712 265.689,137.466 265.689,139.714C265.689,141.957 262.291,143.71 257.952,143.71C253.617,143.71 250.22,141.957 250.22,139.714C250.22,137.466 253.617,135.712 257.952,135.712Z" style="fill:rgb(209,74,56);fill-rule:nonzero;"/>
                    <path d="M263.87,137.247L264.099,137.218L264.287,137.347C265.299,138.041 265.834,138.883 265.834,139.785C265.834,140.859 265.052,141.857 263.636,142.6L263.454,142.696L263.257,142.665C260.418,142.202 258.792,141.23 258.792,140C258.792,138.679 260.69,137.654 263.87,137.247Z" style="fill:rgb(77,77,80);fill-rule:nonzero;"/>
                    <path d="M260.495,140.572L260.492,140.572C260.545,140.572 265.995,140.632 267.517,143.41C268.324,144.884 267.882,146.984 266.205,149.643L267.666,150.562C269.706,147.335 270.165,144.639 269.03,142.573C267.019,138.911 260.765,138.843 260.5,138.843L260.495,140.572Z" style="fill:rgb(77,77,80);fill-rule:nonzero;"/>
                    <path d="M360.214,143.451L294.002,143.451C284.067,143.451 275.943,139.634 275.943,134.967L282.788,116.214C284.215,111.159 290.914,103.696 300.847,103.696L353.366,103.696C363.302,103.696 369.884,110.991 371.425,116.214L378.271,134.967C378.271,139.634 370.146,143.451 360.214,143.451ZM375.086,114.501C373.417,108.372 366.286,99.805 355.537,99.805L298.675,99.805C287.924,99.805 280.673,108.572 279.129,114.501L271.72,136.523C271.72,141.993 280.515,146.473 291.267,146.473L362.946,146.473C373.697,146.473 382.494,141.993 382.494,136.523L375.086,114.501Z" style="fill:rgb(209,74,56);fill-rule:nonzero;"/>
                    <path d="M381.894,136.523C381.894,141.585 373.216,145.871 362.946,145.871L291.267,145.871C280.998,145.871 272.322,141.585 272.322,136.523L272.292,136.715L279.706,114.693C281.208,108.912 288.269,100.411 298.675,100.411L355.537,100.411C365.943,100.411 372.891,108.743 374.503,114.66L381.922,136.715L381.894,136.523ZM375.668,114.34C373.954,108.056 366.578,99.202 355.537,99.202L298.675,99.202C287.629,99.202 280.134,108.241 278.54,114.354L271.146,136.333L271.11,136.423L271.11,136.523C271.11,142.344 280.152,147.076 291.267,147.076L362.946,147.076C374.061,147.076 383.101,142.344 383.101,136.523L383.101,136.423L383.066,136.333L375.668,114.34Z" style="fill:rgb(230,93,72);fill-rule:nonzero;"/>
                    <path d="M378.839,134.763L371.992,116.007C370.418,110.664 363.584,103.091 353.366,103.091L300.847,103.091C290.624,103.091 283.679,110.823 282.203,116.049L275.375,134.763L275.336,134.867L275.336,134.967C275.336,139.977 283.711,144.05 294.002,144.05L360.214,144.05C370.505,144.05 378.877,139.977 378.877,134.967L378.877,134.867L378.839,134.763ZM360.214,142.839L294.002,142.839C284.539,142.839 276.546,139.239 276.546,134.967L276.511,135.178L283.356,116.421C284.744,111.506 291.249,104.299 300.847,104.299L353.366,104.299C362.962,104.299 369.361,111.363 370.843,116.386L377.701,135.178L377.666,134.967C377.666,139.239 369.672,142.839 360.214,142.839Z" style="fill:rgb(162,62,42);fill-rule:nonzero;"/>
                    <path d="M258.153,173.991L250.117,173.991C248.028,173.991 246.326,175.302 246.326,176.916L246.326,206.141C246.326,207.755 248.028,209.068 250.117,209.068L258.153,209.068C260.247,209.068 261.948,207.755 261.948,206.141L261.948,176.916C261.948,175.302 260.247,173.991 258.153,173.991Z" style="fill:rgb(56,56,56);fill-rule:nonzero;"/>
                    <path d="M404.204,173.991L396.171,173.991C394.076,173.991 392.378,175.302 392.378,176.916L392.378,206.141C392.378,207.755 394.076,209.068 396.171,209.068L404.204,209.068C406.296,209.068 407.994,207.755 407.994,206.141L407.994,176.916C407.994,175.302 406.296,173.991 404.204,173.991Z" style="fill:rgb(56,56,56);fill-rule:nonzero;"/>
                    <path d="M272.232,148.633L382.127,148.633C382.127,148.633 382.853,148.71 384.039,148.869L378.495,134.882C376.728,129.041 369.062,121.249 357.527,121.249L296.685,121.249C285.152,121.249 277.778,128.61 275.718,134.882L270.167,148.888C271.448,148.717 272.232,148.633 272.232,148.633ZM389.646,152.35L389.646,152.451C389.646,158.777 379.569,163.929 367.183,163.929L287.031,163.929C274.644,163.929 264.569,158.777 264.569,152.451L264.569,152.35L264.601,152.254L272.876,128.238C274.65,121.58 283.006,111.729 295.319,111.729L358.896,111.729C371.206,111.729 379.428,121.38 381.336,128.23L389.612,152.254L389.646,152.35Z" style="fill:rgb(209,74,56);fill-rule:nonzero;"/>
                    <path d="M272.232,148.633L382.127,148.633C382.127,148.633 382.853,148.71 384.039,148.869L378.495,134.882C376.728,129.041 369.062,121.249 357.527,121.249L296.685,121.249C285.152,121.249 277.778,128.61 275.718,134.882L270.167,148.888C271.448,148.717 272.232,148.633 272.232,148.633Z" style="fill:rgb(11,80,98);fill-rule:nonzero;"/>
                    <path d="M379.975,150.497L274.387,150.497C274.387,150.497 249.473,153.232 249.473,160.43L249.473,181.034C249.473,181.034 250.027,207.173 259.44,209.979C259.44,209.979 297.448,213.735 327.111,213.756L394.922,209.979C404.332,207.173 404.887,181.034 404.887,181.034L404.887,160.43C404.887,153.232 379.975,150.497 379.975,150.497Z" style="fill:rgb(162,62,42);fill-rule:nonzero;"/>
                    <path d="M384.039,148.869C382.853,148.71 382.127,148.633 382.127,148.633L381.864,148.633L381.984,148.704C381.984,148.704 371.612,162.962 368.155,175.71L286.205,175.71C282.746,162.962 272.376,148.704 272.376,148.704L272.497,148.633L272.232,148.633C272.232,148.633 271.448,148.717 270.167,148.888C264.036,149.715 246.305,152.614 246.305,158.571L246.305,179.164C246.305,179.164 246.884,202.497 256.674,205.307C256.674,205.307 296.233,211.982 327.108,212.006L327.254,212.006C358.128,211.982 397.686,205.307 397.686,205.307C407.478,202.497 408.055,179.164 408.055,179.164L408.055,158.571C408.055,152.561 390.021,149.663 384.039,148.869Z" style="fill:rgb(209,74,56);fill-rule:nonzero;"/>
                    <path d="M381.864,148.633C369.993,141.411 331.983,139.8 327.183,140.277C322.376,139.8 284.367,141.411 272.497,148.633L272.376,148.704C272.376,148.704 282.746,162.962 286.205,175.71L368.155,175.71C371.612,162.962 381.984,148.704 381.984,148.704L381.864,148.633Z" style="fill:rgb(230,93,72);fill-rule:nonzero;"/>
                    <path d="M368.739,175.866C372.128,163.378 382.37,149.2 382.474,149.06L382.857,148.533L382.305,148.189C370.233,140.696 331.919,139.198 327.119,139.674L327.24,139.674C322.442,139.198 284.124,140.696 272.055,148.189L271.504,148.533L271.89,149.06C271.991,149.2 282.233,163.378 285.62,175.866L286.784,175.549C283.341,162.847 272.968,148.488 272.867,148.349L272.696,149.22C284.298,142.013 322.551,140.429 327.119,140.875L327.183,140.882L327.24,140.875C331.807,140.429 370.063,142.013 381.666,149.22L381.492,148.349C381.39,148.488 371.018,162.847 367.573,175.549L368.739,175.866Z" style="fill:rgb(209,74,56);fill-rule:nonzero;"/>
                    <path d="M396.674,165.392C395.975,165.25 395.221,165.158 394.343,165.174C394.343,165.174 387.688,164.813 372.763,173.267C372.763,173.267 370.065,174.254 370.605,177.85C370.605,177.85 370.245,180.462 374.474,180.193C374.474,180.193 397.886,177.695 396.674,177.905L396.674,165.392Z" style="fill:rgb(58,58,59);fill-rule:nonzero;"/>
                    <path d="M396.697,165.398L396.674,165.39L396.674,177.905C397.886,177.695 398.962,177.471 399.838,177.239L399.92,177.216C400.162,177.147 400.387,177.084 400.595,177.016L400.765,176.96C400.932,176.9 401.086,176.845 401.227,176.784L401.403,176.708C401.523,176.657 401.627,176.6 401.723,176.544L401.863,176.466L402.068,176.289L402.148,176.213L402.255,175.962C402.255,175.962 404.014,166.872 396.697,165.398Z" style="fill:rgb(77,77,80);fill-rule:nonzero;"/>
                    <path d="M383.177,172.764C383.177,175.144 385.11,177.079 387.495,177.079C389.879,177.079 391.812,175.144 391.812,172.764C391.812,170.381 389.879,168.449 387.495,168.449C385.11,168.449 383.177,170.381 383.177,172.764Z" style="fill:rgb(247,148,32);fill-rule:nonzero;"/>
                    <path d="M380.428,175.896C380.428,177.802 378.88,179.351 376.975,179.351C375.07,179.351 373.523,177.802 373.523,175.896C373.523,173.993 375.07,172.448 376.975,172.448C378.88,172.448 380.428,173.993 380.428,175.896Z" style="fill:rgb(247,148,32);fill-rule:nonzero;"/>
                    <path d="M258.583,165.392C259.282,165.25 260.036,165.158 260.911,165.174C260.911,165.174 267.567,164.813 282.493,173.267C282.493,173.267 285.189,174.254 284.649,177.85C284.649,177.85 285.013,180.462 280.784,180.193C280.784,180.193 257.37,177.695 258.583,177.905L258.583,165.392Z" style="fill:rgb(58,58,59);fill-rule:nonzero;"/>
                    <path d="M258.558,165.398L258.583,165.39L258.583,177.905C257.37,177.695 256.294,177.471 255.418,177.239L255.335,177.216C255.095,177.147 254.869,177.084 254.661,177.016L254.49,176.96C254.321,176.9 254.17,176.845 254.031,176.784L253.853,176.708C253.733,176.657 253.632,176.6 253.534,176.544L253.395,176.466L253.188,176.289L253.108,176.213L253,175.962C253,175.962 251.24,166.872 258.558,165.398Z" style="fill:rgb(77,77,80);fill-rule:nonzero;"/>
                    <path d="M272.074,172.764C272.074,175.144 270.143,177.079 267.759,177.079C265.376,177.079 263.443,175.144 263.443,172.764C263.443,170.381 265.376,168.449 267.759,168.449C270.143,168.449 272.074,170.381 272.074,172.764Z" style="fill:rgb(247,148,32);fill-rule:nonzero;"/>
                    <path d="M281.729,175.896C281.729,177.802 280.185,179.351 278.278,179.351C276.375,179.351 274.827,177.802 274.827,175.896C274.827,173.993 276.375,172.448 278.278,172.448C280.185,172.448 281.729,173.993 281.729,175.896Z" style="fill:rgb(247,148,32);fill-rule:nonzero;"/>
                    <path d="M386.054,189.505C386.054,193.078 388.948,195.981 392.526,195.981C396.104,195.981 399.004,193.078 399.004,189.505C399.004,185.927 396.104,183.023 392.526,183.023C388.948,183.023 386.054,185.927 386.054,189.505Z" style="fill:rgb(58,58,59);fill-rule:nonzero;"/>
                    <path d="M392.526,183.892C395.622,183.892 398.142,186.412 398.142,189.505C398.142,192.599 395.622,195.115 392.526,195.115C389.431,195.115 386.915,192.599 386.915,189.505C386.915,186.412 389.431,183.892 392.526,183.892ZM385.187,189.505C385.187,193.554 388.48,196.842 392.526,196.842C396.573,196.842 399.868,193.554 399.868,189.505C399.868,185.453 396.573,182.163 392.526,182.163C388.48,182.163 385.187,185.453 385.187,189.505Z" style="fill:rgb(230,93,72);fill-rule:nonzero;"/>
                    <path d="M268.309,189.505C268.309,193.078 265.413,195.981 261.833,195.981C258.256,195.981 255.358,193.078 255.358,189.505C255.358,185.927 258.256,183.023 261.833,183.023C265.413,183.023 268.309,185.927 268.309,189.505Z" style="fill:rgb(58,58,59);fill-rule:nonzero;"/>
                    <path d="M261.833,182.163C257.786,182.163 254.493,185.453 254.493,189.505C254.493,193.554 257.786,196.842 261.833,196.842C265.881,196.842 269.175,193.554 269.175,189.505C269.175,185.453 265.881,182.163 261.833,182.163ZM267.448,189.505C267.448,192.599 264.929,195.115 261.833,195.115C258.738,195.115 256.221,192.599 256.221,189.505C256.221,186.412 258.738,183.892 261.833,183.892C264.929,183.892 267.448,186.412 267.448,189.505Z" style="fill:rgb(230,93,72);fill-rule:nonzero;"/>
                    <path d="M285.339,186.515C281.132,186.515 277.604,190.068 276.852,194.723L319.884,194.723L318.916,186.515L285.339,186.515Z" style="fill:rgb(175,66,47);fill-rule:nonzero;"/>
                    <path d="M377.51,194.723C376.755,190.068 373.229,186.515 369.021,186.515L335.593,186.515L334.622,194.723L377.51,194.723Z" style="fill:rgb(175,66,47);fill-rule:nonzero;"/>
                    <path d="M276.696,199.33L280.152,208.196C292.866,209.818 306.999,211.58 321.917,211.935L320.429,199.33L276.696,199.33Z" style="fill:rgb(175,66,47);fill-rule:nonzero;"/>
                    <path d="M377.666,199.33L334.077,199.33L332.59,211.93C347.453,211.566 361.537,209.815 374.208,208.196L377.666,199.33Z" style="fill:rgb(175,66,47);fill-rule:nonzero;"/>
                    <path d="M334.622,194.723L335.593,186.515L335.609,186.367L318.899,186.367L318.916,186.515L319.884,194.723L320.429,199.33L321.917,211.935L322.004,212.661C323.726,212.701 325.432,212.723 327.111,212.723L327.249,212.723C328.974,212.723 330.729,212.701 332.505,212.661L332.59,211.93L334.077,199.33L334.622,194.723Z" style="fill:rgb(209,74,56);fill-rule:nonzero;"/>
                    <path d="M416.6,208.668L239.391,208.668C237.312,208.668 235.639,210.349 235.639,212.425C235.639,214.495 237.312,216.176 239.391,216.176L416.6,216.176C418.673,216.176 420.361,214.495 420.361,212.425C420.361,210.349 418.673,208.668 416.6,208.668Z" style="fill:url(#_Linear4);"/>
                </g>
            </g>
        </g>
    </g>
    <defs>
        <linearGradient id="_Linear4" x1="0" y1="0" x2="1" y2="0" gradientUnits="userSpaceOnUse" gradientTransform="matrix(-3.28177e-07,-7.50781,7.50781,-3.28177e-07,328,216.176)"><stop offset="0" style="stop-color:rgb(34,30,31);stop-opacity:1"/><stop offset="0.5" style="stop-color:rgb(34,30,31);stop-opacity:1"/><stop offset="0.6" style="stop-color:rgb(65,64,67);stop-opacity:1"/><stop offset="1" style="stop-color:rgb(65,64,67);stop-opacity:1"/></linearGradient>
    </defs>
</svg>
