<?xml version="1.0"?>
<svg id="root" xmlns="http://www.w3.org/2000/svg" viewBox="0 0 100 100"><path d="M50 11.75c-12.748 0-23.082 8.514-23.082 24.116V68.25h46.165V35.866C73.082 20.264 62.748 11.75 50 11.75z" fill="#323232"/><path d="M90 89.82l-2.579-14.291a16.707 16.707 0 0 0-13.708-13.515L50 58.083l-23.713 3.931a16.705 16.705 0 0 0-13.708 13.515L10 89.82h80z" fill="#e0e0e0"/><g><path fill="#c33736" d="M56.936 73.187L50 79.044l-6.936-5.857V61.782h13.872z"/><path fill="#c33736" d="M55.038 90.079l-1.871-14.166H47.28l-1.87 14.166z"/></g><path fill="#fff" d="M41.369 59.933l-6.002-4.828-6.02 6.402 13.255 15.379 5.548-14.179z"/><path fill="#fff" d="M58.631 59.933l6.002-4.828 6.02 6.402-13.255 15.379-5.548-14.179z"/><path d="M70.653 35.426c0 13.96-9.247 28.976-20.653 28.976S29.347 49.386 29.347 35.426 38.594 13.849 50 13.849s20.653 7.618 20.653 21.577z" fill="#f4e6c8"/><path d="M50 12.738c-11.937 0-21.613 7.972-21.613 22.581 0 .79.034 1.583.089 2.376 9.632-.429 18.231-4.029 24.279-9.544 2.986 5.773 8.11 9.588 13.938 9.588 1.7 0 3.339-.329 4.884-.931.022-.497.035-.993.035-1.488.001-14.61-9.675-22.582-21.612-22.582z" fill="#323232"/><metadata xmlns:d="https://loading.io/stock/">
<d:name>people</d:name>
<d:tags>people,salesman,figure,avatar,woman,person,member,crew,staff,owner</d:tags>
<d:license>by</d:license>
<d:slug>7r0rom</d:slug>
</metadata></svg>